<?xml version="1.0" encoding="UTF-8"?><svg id="uuid-38e5becb-0d62-471c-8c8e-a11c49ee73a2" xmlns="http://www.w3.org/2000/svg" width="149.54" height="155.15" viewBox="0 0 149.54 155.15"><metadata><c2pa:manifest xmlns:c2pa="http://c2pa.org/manifest">AAA0N2p1bWIAAAAeanVtZGMycGEAEQAQgAAAqgA4m3EDYzJwYQAAADQRanVtYgAAAEdqdW1kYzJtYQARABCAAACqADibcQN1cm46dXVpZDozOGQwNzJkZC0wNmI5LTQ4MzYtYmJlOS00M2I4NWNlMjc2ODEAAAABp2p1bWIAAAApanVtZGMyYXMAEQAQgAAAqgA4m3EDYzJwYS5hc3NlcnRpb25zAAAAAMpqdW1iAAAAJmp1bWRjYm9yABEAEIAAAKoAOJtxA2MycGEuYWN0aW9ucwAAAACcY2JvcqFnYWN0aW9uc4GjZmFjdGlvbmtjMnBhLmVkaXRlZG1zb2Z0d2FyZUFnZW50bUFkb2JlIEZpcmVmbHlxZGlnaXRhbFNvdXJjZVR5cGV4Rmh0dHA6Ly9jdi5pcHRjLm9yZy9uZXdzY29kZXMvZGlnaXRhbHNvdXJjZXR5cGUvdHJhaW5lZEFsZ29yaXRobWljTWVkaWEAAACsanVtYgAAAChqdW1kY2JvcgARABCAAACqADibcQNjMnBhLmhhc2guZGF0YQAAAAB8Y2JvcqVqZXhjbHVzaW9uc4GiZXN0YXJ0GPdmbGVuZ3RoGUWgZG5hbWVuanVtYmYgbWFuaWZlc3RjYWxnZnNoYTI1NmRoYXNoWCCssO4bPNK/fqbmdyWrQUMWzgY09v6tSZiJWULqPyOW1GNwYWRJAAAAAAAAAAAAAAACC2p1bWIAAAAkanVtZGMyY2wAEQAQgAAAqgA4m3EDYzJwYS5jbGFpbQAAAAHfY2JvcqhoZGM6dGl0bGVvR2VuZXJhdGVkIEltYWdlaWRjOmZvcm1hdG1pbWFnZS9zdmcreG1samluc3RhbmNlSUR4LHhtcDppaWQ6YjEwZjc1YmEtZmJhNC00MjZhLWFjNzktNGI1YWYzODc3NjFjb2NsYWltX2dlbmVyYXRvcng2QWRvYmVfSWxsdXN0cmF0b3IvMjguMCBhZG9iZV9jMnBhLzAuNy42IGMycGEtcnMvMC4yNS4ydGNsYWltX2dlbmVyYXRvcl9pbmZvgb9kbmFtZXFBZG9iZSBJbGx1c3RyYXRvcmd2ZXJzaW9uZDI4LjD/aXNpZ25hdHVyZXgZc2VsZiNqdW1iZj1jMnBhLnNpZ25hdHVyZWphc3NlcnRpb25zgqJjdXJseCdzZWxmI2p1bWJmPWMycGEuYXNzZXJ0aW9ucy9jMnBhLmFjdGlvbnNkaGFzaFgg66xm4WqDn3xgnOk59f7WI0GCp10rxJISEEb0ImTQK8GiY3VybHgpc2VsZiNqdW1iZj1jMnBhLmFzc2VydGlvbnMvYzJwYS5oYXNoLmRhdGFkaGFzaFggnEXgvyswwrcu2TehfQL+l5X8FgrHbvMWOdlFH8GJjfVjYWxnZnNoYTI1NgAAMBBqdW1iAAAAKGp1bWRjMmNzABEAEIAAAKoAOJtxA2MycGEuc2lnbmF0dXJlAAAAL+BjYm9y0oRZDRuiATgkGCGCWQanMIIGozCCBIugAwIBAgIUe7rFuORe4bJo/cOvBllPEhPz7AkwDQYJKoZIhvcNAQELBQAwdTELMAkGA1UEBhMCVVMxIzAhBgNVBAoTGkFkb2JlIFN5c3RlbXMgSW5jb3Jwb3JhdGVkMR0wGwYDVQQLExRBZG9iZSBUcnVzdCBTZXJ2aWNlczEiMCAGA1UEAxMZQWRvYmUgUHJvZHVjdCBTZXJ2aWNlcyBHNDAeFw0yNjA3MDkwMzEwMjdaFw0yNzA3MDkwMzEwMjdaMIGyMRowGAYDVQQDDBFBZG9iZSBJbGx1c3RyYXRvcjEoMCYGA1UECwwfQ29udGVudCBBdXRoZW50aWNpdHkgSW5pdGlhdGl2ZTETMBEGA1UECgwKQWRvYmUgSW5jLjERMA8GA1UEBwwIU2FuIEpvc2UxEzARBgNVBAgMCkNhbGlmb3JuaWExCzAJBgNVBAYTAlVTMSAwHgYJKoZIhvcNAQkBFhFjYWktb3BzQGFkb2JlLmNvbTCCASIwDQYJKoZIhvcNAQEBBQADggEPADCCAQoCggEBANokiSVjjpV8aRWNKu+rcALDOzUGfQZ4TAiDgdAGm9weHHd7WrYZgUyXww0jUH4L/oQk7kge3bTJt/OUrs4H45vDdaKQd6rIfEh0IWdS0CkimxaacnIHJgY2YqGQSspJLXRNJUR1QmTZAhR2sipM1IURisN+U7Lw/t5JeTR7MsiQ+UMKQwB85gJJUj/P1IG3tljmui1JJlQAuuQzaeZeynIVYGhH1w8kgCpqQnJpCqaksXl1RWa3lFU1K4avIDmGJhGI3J3gTkB+qCKGT7h0p/WjCsRKD9qq+4UwipChSQdK/CiIRB5U1dG2I0maEH7CcYr0sKUkqcueBdcxazhKa88CAwEAAaOCAeswggHnMA4GA1UdDwEB/wQEAwIHgDAqBgNVHSUEIzAhBgkqhkiG9y8BAQwGCisGAQQBg+heAgEGCCsGAQUFBwMEMB0GA1UdDgQWBBQunfsQtEpnOejuivgOBCc/BmimZDAfBgNVHSMEGDAWgBTQrUKK8HoUByXGl8BDqCOF6LUtIzCBjgYDVR0gBIGGMIGDMIGABgkqhkiG9y8BAgMwczBxBggrBgEFBQcCAjBlDGNZb3UgYXJlIG5vdCBwZXJtaXR0ZWQgdG8gdXNlIHRoaXMgTGljZW5zZSBDZXJ0aWZpY2F0ZSBleGNlcHQgYXMgcGVybWl0dGVkIGJ5IHRoZSBsaWNlbnNlIGFncmVlbWVudC4wDAYDVR0TAQH/BAIwADCBgAYIKwYBBQUHAQEEdDByMCgGCCsGAQUFBzABhhxodHRwOi8vb2NzcC5vbmUuZGlnaWNlcnQuY29tMEYGCCsGAQUFBzAChjpodHRwOi8vY2FjZXJ0cy5vbmUuZGlnaWNlcnQuY29tL0Fkb2JlUHJvZHVjdFNlcnZpY2VzRzQuY3J0MEcGA1UdHwRAMD4wPKA6oDiGNmh0dHA6Ly9jcmwub25lLmRpZ2ljZXJ0LmNvbS9BZG9iZVByb2R1Y3RTZXJ2aWNlc0c0LmNybDANBgkqhkiG9w0BAQsFAAOCAgEAgIPCu/zZPrHnjdw1q7ohgZ6cgYN5KqE1qGBlOvMenQQIk8G6kPyIwLRxWDfZxg34zSc3/qc/ZOCuJy1GntZDgqzlApuPN/Q+Y0Ewg3xNNgAP5PiY4/Uy/31o+GTSR6soYliYoFqai/gPmuTcKsy2XHfguBAfw7k94GlGOm526bLG/qG+RcLJ97hg+u4koN0l924NfSsXAbhkQ3GLr9Ml4UIDODb+uRq9uWjTj8H9d1Ko++miLucmvveLmOD/3JLk1Q29z3Rl+kKCjqzffviuCjxk3IWznNa9vlNxMk7IzEVVKF1MtX5bdvFkUJKtIBT2WZMZXHe3cVj0AbSnacTQoUCuncshNjYsAJoDlJ3/hpdbVwPt31FsjzSH+VrUPhQiSnPycTJio07F+XS1Nvu0wDJzai7Vw4E375UuU54C5pGrZGAKk3qLWKrPl7Fkpfh9abJcueFX7dSpzcerAGnDc2xKzBH6xaOGQXSHF7JTYOcLzrF81qhq7gJ9WxmiXyi0u/7Hc3YNvXSgh6mxt7/0XsgPkR0/xAPFgUGKqlbWnnPt1Ck+r/Nx2hZY6ID6wdk709lszdS45Snps9fjBCGLkSxU9qIJUrnlmh2II5gWYaPxRa3/hL5HmapagBubSEFVz9WkyMPui19c5A76VeEEWi6faPfgOxcPl4bD22bk/rxZBmcwggZjMIIES6ADAgECAhAO4brfrXiubya9USWYB4gvMA0GCSqGSIb3DQEBCwUAMGwxCzAJBgNVBAYTAlVTMSMwIQYDVQQKExpBZG9iZSBTeXN0ZW1zIEluY29ycG9yYXRlZDEdMBsGA1UECxMUQWRvYmUgVHJ1c3QgU2VydmljZXMxGTAXBgNVBAMTEEFkb2JlIFJvb3QgQ0EgRzIwHhcNMjQxMTIwMDAwMDAwWhcNNDQxMTE5MjM1OTU5WjB1MQswCQYDVQQGEwJVUzEjMCEGA1UEChMaQWRvYmUgU3lzdGVtcyBJbmNvcnBvcmF0ZWQxHTAbBgNVBAsTFEFkb2JlIFRydXN0IFNlcnZpY2VzMSIwIAYDVQQDExlBZG9iZSBQcm9kdWN0IFNlcnZpY2VzIEc0MIICIjANBgkqhkiG9w0BAQEFAAOCAg8AMIICCgKCAgEArEX4gLFYSLzO6YKZ4sKJTtqzpEMSSAH/LqcVd5x4wBALlp/ILNd5bJAmiU7sKaLg3Dm+17F0PfNULAbtxQCfeQes1os22QZL6qnuMIbdCm8BKR1H66M6nJaI4H+IGXJZH7x2MWmO/c3fbe1HgOif3N5nbf4Zy2WZ34Pkq8jXMpB1Zgcq0zEUlpEpfCt5s4TiK3iVWg99jzje9703ty4mUXKPZW7c0uuvVGAQX6N1QAATKdOEYpVWhQobVpua6+YurfguW4BxEgwTRMTwS4Yw2+iZMsBgjZzgxJfGGsmpOGVZGj4yxeL4nlL9Viyb6G93gWXC6z6oXhwD7VAQM0yKJ3E9MyOLc5c0CGycVY0UUG3RHNM1IWw5A5sMpOj3RgG8R9PokaqPCSvuER+PzuBw1VeTOglIcQAMniQ2cm7muB5/Yu9inh0bUSlCyQYytlqrnmANxspWbiudjkz3eUewbgMS6x//diKF0851zSwOCYMMmK5BHoaVvV8rhJ7Qn2+iZdJJbWncgK/dNSl4p38ZFvcKEMWkx8cO/RSN8JGH155EFcUYJaQHoNS9IzPq4AcWkO5eJHJ6ZGOOzMlNbDHSnocHIx229FCGED8l+ARwsS1RxvkxOgKv4PAg7hlqg1qS0m8k5Ae0bRNBsCuEiD7/flStNtU9tmDunGZCeNOBs+8CAwEAAaOB9zCB9DASBgNVHRMBAf8ECDAGAQH/AgEAMDUGA1UdHwQuMCwwKqAooCaGJGh0dHA6Ly9jcmwuYWRvYmUuY29tL2Fkb2Jlcm9vdGcyLmNybDAOBgNVHQ8BAf8EBAMCAYYwVwYDVR0gBFAwTjBMBgkqhkiG9y8BAgMwPzA9BggrBgEFBQcCARYxaHR0cHM6Ly93d3cuYWRvYmUuY29tL21pc2MvcGtpL3Byb2Rfc3ZjZV9jcHMuaHRtbDAdBgNVHQ4EFgQU0K1CivB6FAclxpfAQ6gjhei1LSMwHwYDVR0jBBgwFoAUphzhbVQkTKiPSHK/bqmM1eTsMdQwDQYJKoZIhvcNAQELBQADggIBAJGWqENTTs5YuaFrb5im1gQwWve0QT2+EEuWeU3uh4pFb1LxRUQYlQ3AafDgczLYgh4YZzqmfaH6zplXrEnwJ2OAxPxmnk61o017k7+offsQROwPE3v2VQOiVYCc70ZPUufV9PbnPuf6KVI9DkQxTMqxNGyWokxVB5M5hY1hfzT54V6hPz/Szo1kuzGh3DiX6kFF3K8jmDaD++DFNg9CN2MF6ogg8Fl9bk8jpYnB6wlbrm1dqp3UY2aSQM+U7dlxLyqPRM43GkJ+sOyNOb46lf2TZi/KWO7P8YuyybD2GnDA5r2BIg6FWtHWFIKhaSsdDUpZ5p509ESLQB2VDQ1cKU+Z/sDEJk3x7h+Q2i9249fJOcjjec3w8UyxSbJJTFv1G3JY4fzsq4mMFWSBfY9shG8LGdDpGvMSUxvMp/D+gNGzw+yr+abc6pXEYTwmoQfvKXeYtrs5ASTpsAyOoSg5GTG50ZN/Rt7JXvYi7kyWSUhn0vcntcsg5uZRGBWEl/OYF+5svB9EabVppJx97IIv/fxPSMq0qpiSUOLUDdVtY8FIyfywJxLtw6ttEtC2bVjqoRL7MTku+38eexUB4HVxpC7E/4VuVztrjFBvqxGbLoWZVYVurALXLN5dtKj2SLb7N3c57ODJ82ZaCgSPczCVtBcw2L1WryQD0d/itrIuzbx+o2ZzaWdUc3ShaXRzdFRva2Vuc4GhY3ZhbFkOWTCCDlUwAwIBADCCDkwGCSqGSIb3DQEHAqCCDj0wgg45AgEDMQ8wDQYJYIZIAWUDBAIBBQAwgYIGCyqGSIb3DQEJEAEEoHMEcTBvAgEBBglghkgBhv1sBwEwMTANBglghkgBZQMEAgEFAAQgx51OAZnIhIFjX2beMqeL7zccsjX9t+N0dfGAXAL0oO4CEQDbOCD8N2ZedqR5hngQQo5QGA8yMDI2MDcyMjE3MjgxNFoCCDp++VDVTbbgoIIL2jCCBR4wggMGoAMCAQICEAkZDcEsnIfbMv0KtVC97UswDQYJKoZIhvcNAQELBQAwaTELMAkGA1UEBhMCVVMxFzAVBgNVBAoTDkRpZ2lDZXJ0LCBJbmMuMUEwPwYDVQQDEzhEaWdpQ2VydCBUcnVzdGVkIEc0IFRpbWVTdGFtcGluZyBSU0E0MDk2IFNIQTI1NiAyMDI1IENBMTAeFw0yNTA2MTEwMDAwMDBaFw0zNjA5MTAyMzU5NTlaMF8xCzAJBgNVBAYTAlVTMRcwFQYDVQQKEw5EaWdpQ2VydCwgSW5jLjE3MDUGA1UEAxMuQWRvYmUgU0hBMjU2IEVDQzI1NiBUaW1lc3RhbXAgUmVzcG9uZGVyIDIwMjUgMTBZMBMGByqGSM49AgEGCCqGSM49AwEHA0IABDqZydXZSO9L84jXxrJwIPPeIspw7/k8jP1iwxb5ZO0PbiN3ijVubsdbzV38sK17hnS0u5hnGOEdH2EnsUwRqfKjggGVMIIBkTAMBgNVHRMBAf8EAjAAMB0GA1UdDgQWBBQgdqGjbnEVj3SVDa6kLKQ2P1gZFTAfBgNVHSMEGDAWgBTvb1NK6eQGfHrK4pBW9i/USezLTjAOBgNVHQ8BAf8EBAMCB4AwFgYDVR0lAQH/BAwwCgYIKwYBBQUHAwgwgZUGCCsGAQUFBwEBBIGIMIGFMCQGCCsGAQUFBzABhhhodHRwOi8vb2NzcC5kaWdpY2VydC5jb20wXQYIKwYBBQUHMAKGUWh0dHA6Ly9jYWNlcnRzLmRpZ2ljZXJ0LmNvbS9EaWdpQ2VydFRydXN0ZWRHNFRpbWVTdGFtcGluZ1JTQTQwOTZTSEEyNTYyMDI1Q0ExLmNydDBfBgNVHR8EWDBWMFSgUqBQhk5odHRwOi8vY3JsMy5kaWdpY2VydC5jb20vRGlnaUNlcnRUcnVzdGVkRzRUaW1lU3RhbXBpbmdSU0E0MDk2U0hBMjU2MjAyNUNBMS5jcmwwIAYDVR0gBBkwFzAIBgZngQwBBAIwCwYJYIZIAYb9bAcBMA0GCSqGSIb3DQEBCwUAA4ICAQBKnP4qzrnk6bae64mNkuAvegVfF4WZ752PCIF1U+QchK/h9ENe079SAU7s66f6zo6g2tgpDobFpEtS7bcOasJ4TK8F0TlFf8IAS0rjvc+wOyjxzW2aSOoNIfODENGzChf8QdYixJGuMkzxFYHsp3co+NrSO5m2QVWknOqOT92on1RqrKIp8qsJGLAiktTUJ0FEWePq7ElN+HTLvHOv6tY48dUwk17MXneImj3CL5BI5fZ57pmtt0oBgdY7ywz4RkbS/M1pZ6pQ3UuVODntDU8qkoLGIKYqCqzEZeZJxaKxk/OMS5Q7KssP04mPK9c7xJ4e9/rE8XCGcITeBzZ52wftAJV2wnc6kpnsky5vAjYbCoj0yDAacokbfmT7y9AT0wvOJUPfSLjLyPI5J0xp95cdi8bHRoYDAI5szZ7MZKad1Vav0M+HVwZqY0CuNNSRxZEXTKjRTMnB0bXhVCo+XmeWP/a0uqTbToNPYWwgxAoJrjZQlsiFLaF0vGcc3xKmSnJ5TraBThVPllFZqqZu/D7hAUiAdChY94w7A2lUep9YChxva/tuyiaC8qgx3nmSMaNudy3rnGKQRpIx7lOUaM2Z+jNurUELw4sX16oDovhlbVmJ5Ekg/RgGL0SJBfmYfQs3I1YD8K6BiB31vHNEcX71GhVfxqvzfcR8GkY+xFIeTDCCBrQwggScoAMCAQICEA3HrFcF/yGZLkBDIgw6SYYwDQYJKoZIhvcNAQELBQAwYjELMAkGA1UEBhMCVVMxFTATBgNVBAoTDERpZ2lDZXJ0IEluYzEZMBcGA1UECxMQd3d3LmRpZ2ljZXJ0LmNvbTEhMB8GA1UEAxMYRGlnaUNlcnQgVHJ1c3RlZCBSb290IEc0MB4XDTI1MDUwNzAwMDAwMFoXDTM4MDExNDIzNTk1OVowaTELMAkGA1UEBhMCVVMxFzAVBgNVBAoTDkRpZ2lDZXJ0LCBJbmMuMUEwPwYDVQQDEzhEaWdpQ2VydCBUcnVzdGVkIEc0IFRpbWVTdGFtcGluZyBSU0E0MDk2IFNIQTI1NiAyMDI1IENBMTCCAiIwDQYJKoZIhvcNAQEBBQADggIPADCCAgoCggIBALR4MdMKmEFyvjxGwBysddujRmh0tFEXnU2tjQ2UtZmWgyxU7UNqEY81FzJsQqr5G7A6c+Gh/qm8Xi4aPCOo2N8S9SLrC6Kbltqn7SWCWgzbNfiR+2fkHUiljNOqnIVD/gG3SYDEAd4dg2dDGpeZGKe+42DFUF0mR/vtLa4+gKPsYfwEu7EEbkC9+0F2w4QJLVSTEG8yAR2CQWIM1iI5PHg62IVwxKSpO0XaF9DPfNBKS7Zazch8NF5vp7eaZ2CVNxpqumzTCNSOxm+SAWSuIr21Qomb+zzQWKhxKTVVgtmUPAW35xUUFREmDrMxSNlr/NsJyUXzdtFUUt4aS4CEeIY8y9IaaGBpPNXKFifinT7zL2gdFpBP9qh8SdLnEut/GcalNeJQ55IuwnKCgs+nrpuQNfVmUB5KlCX3ZA4x5HHKS+rqBvKWxdCyQEEGcbLe1b8Aw4wJkhU1JrPsFfxW1gaou30yZ46t4Y9F20HHfIY4/6vHespYMQmUiote8ladjS/nJ0+k6MvqzfpzPDOy5y6gqztiT96Fv/9bH7mQyogxG9QEPHrPV6/7umw052AkyiLA6tQbZl1KhBtTasySkuJDpsZGKdlsjg4u70EwgWbVRSX1Wd4+zoFpp4Ra+MlKM2baoD6x0VR4RjSpWM8o5a6D8bpfm4CLKczsG7ZrIGNTAgMBAAGjggFdMIIBWTASBgNVHRMBAf8ECDAGAQH/AgEAMB0GA1UdDgQWBBTvb1NK6eQGfHrK4pBW9i/USezLTjAfBgNVHSMEGDAWgBTs1+OC0nFdZEzfLmc/57qYrhwPTzAOBgNVHQ8BAf8EBAMCAYYwEwYDVR0lBAwwCgYIKwYBBQUHAwgwdwYIKwYBBQUHAQEEazBpMCQGCCsGAQUFBzABhhhodHRwOi8vb2NzcC5kaWdpY2VydC5jb20wQQYIKwYBBQUHMAKGNWh0dHA6Ly9jYWNlcnRzLmRpZ2ljZXJ0LmNvbS9EaWdpQ2VydFRydXN0ZWRSb290RzQuY3J0MEMGA1UdHwQ8MDowOKA2oDSGMmh0dHA6Ly9jcmwzLmRpZ2ljZXJ0LmNvbS9EaWdpQ2VydFRydXN0ZWRSb290RzQuY3JsMCAGA1UdIAQZMBcwCAYGZ4EMAQQCMAsGCWCGSAGG/WwHATANBgkqhkiG9w0BAQsFAAOCAgEAF877FoAc/gc9EXZxML2+C8i1NKZ/zdCHxYgaMH9Pw5tcBnPw6O6FTGNpoV2V4wzSUGvI9NAzaoQk97frPBtIj+ZLzdp+yXdhOP4hCFATuNT+ReOPK0mCefSG+tXqGpYZ3essBS3q8nL2UwM+NMvEuBd/2vmdYxDCvwzJv2sRUoKEfJ+nN57mQfQXwcAEGCvRR2qKtntujB71WPYAgwPyWLKu6RnaID/B0ba2H3LUiwDRAXx1Neq9ydOal95CHfmTnM4I+ZI2rVQfjXQA1WSjjf4J2a7jLzWGNqNX+DF0SQzHU0pTi4dBwp9nEC8EAqoxW6q17r0z0noDjs6+BFo+z7bKSBwZXTRNivYuve3L2oiKNqetRHdqfMTCW/NmKLJ9M+MtucVGyOxiDf06VXxyKkOirv6o02OoXN4bFzK0vlNMsvhlqgF2puE6FndlENSmE+9JGYxOGLS/D284NHNboDGcmWXfwXRy4kbu4QFhOm0xJuF2EZAOk5eCkhSxZON3rGlHqhpB/8MluDezooIs8CVnrpHMiD2wL40mm53+/j7tFaxYKIqL0Q4ssd8xHZnIn/7GELH3IdvG2XlM9q7WP/UwgOkw/HQtyRN62JK4S1C8uw3PdBunvAZapsiI5YKdvlarEvf8EA+8hcpSM9LHJmyrxaFtoza2zNaQ9k+5t1wxggG+MIIBugIBATB9MGkxCzAJBgNVBAYTAlVTMRcwFQYDVQQKEw5EaWdpQ2VydCwgSW5jLjFBMD8GA1UEAxM4RGlnaUNlcnQgVHJ1c3RlZCBHNCBUaW1lU3RhbXBpbmcgUlNBNDA5NiBTSEEyNTYgMjAyNSBDQTECEAkZDcEsnIfbMv0KtVC97UswDQYJYIZIAWUDBAIBBQCggdEwGgYJKoZIhvcNAQkDMQ0GCyqGSIb3DQEJEAEEMBwGCSqGSIb3DQEJBTEPFw0yNjA3MjIxNzI4MTRaMCsGCyqGSIb3DQEJEAIMMRwwGjAYMBYEFNeHunkpY5+4wS9KphZRdMvgpYDzMC8GCSqGSIb3DQEJBDEiBCDwzSgoYR+xDuvyaSAr2hKVaeG10TWU1EgPkiZkg+Vi1jA3BgsqhkiG9w0BCRACLzEoMCYwJDAiBCDTI6/iX909FvJvLyWefOSJ24bS2aqweyb1mDcIYIlWeDAKBggqhkjOPQQDAgRHMEUCIQCGRnq2U9dcIOhy4CDHXZxWQ+LX8tl3zPQeAkrU3JysBwIgUdDYrJLkixiAKPHEk6DyG8prvCJO6Nwr9DZRNhbiHjRlclZhbHOhaG9jc3BWYWxzgVkC2zCCAtcKAQCgggLQMIICzAYJKwYBBQUHMAEBBIICvTCCArkwgaKiFgQU0K1CivB6FAclxpfAQ6gjhei1LSMYDzIwMjYwNzIxMDMxMjU5WjB3MHUwTTAJBgUrDgMCGgUABBSK77IBEG9rZRVNwaO3UamLc5LLFgQU0K1CivB6FAclxpfAQ6gjhei1LSMCFHu6xbjkXuGyaP3DrwZZTxIT8+wJgAAYDzIwMjYwNzIxMDMxMjU5WqARGA8yMDI2MDcyODAzMTI1OVowDQYJKoZIhvcNAQELBQADggIBADhsI5ybtQmFnUo/6xmx0UwGJmAM9gpIGtrbhICwhuA2Lrd86BJdjf/FpPoyryB/y3rz8QNH7U6SV5oF3MNr4ktDCE5r8eCe+iinDggbj2Hc3gviejO01nmk7AOyzGezDLQOw5NYFiLNJsbvuJzBvQcSXr9fyEaqFujzppjbN+cToyd83XuCKjSAdFHjamxHZt09si4qa6qe1Y1ZMWTB7x5nTMycU4HdOKcpfsKII6ByRMJP7FNiZAYf9evFc17rsh3nymMRSmG3XHy6cWr7gWZLAfKhMti85lIu2FIupPaqi5ZlZFgzT9oB/DfEqvvqS6O4y9oknveBXd6csW7hSAme4lESvZHqJgc7lQc5z1TOSBYG679zZST0MRTiIHNtxEogZh9Cwl7k2i2qu2kM9gvgjZahWEtMIt+kdnAiQ4+V25+dNeqiJVQ3lqJxQdz2rLz5/keG9B7l5J0maGnkysR5QLB9dHsw4dUW2s+Xbz7YSL/lZ1ZGUpKnfQ31DaXGMcrslpo6P/QceschNsH+aCdbSJHRs+ZUehMvvAq7+sjfb8E0VW1DvIEj/IyCUfE6GpYZO6bxAC/bLYc6sxCACQM9kBlj1SEkmKAuoL+7lUiBzGBIwlQb9ggOIOVmGCqBaATWDDSqAEqySPPbpREl9A1C4i5Gfd3jwm3SSUxOE2CUY3BhZFkQSQAAAAAAAAAAAAAAAAAAAAAAAAAAAAAAAAAAAAAAAAAAAAAAAAAAAAAAAAAAAAAAAAAAAAAAAAAAAAAAAAAAAAAAAAAAAAAAAAAAAAAAAAAAAAAAAAAAAAAAAAAAAAAAAAAAAAAAAAAAAAAAAAAAAAAAAAAAAAAAAAAAAAAAAAAAAAAAAAAAAAAAAAAAAAAAAAAAAAAAAAAAAAAAAAAAAAAAAAAAAAAAAAAAAAAAAAAAAAAAAAAAAAAAAAAAAAAAAAAAAAAAAAAAAAAAAAAAAAAAAAAAAAAAAAAAAAAAAAAAAAAAAAAAAAAAAAAAAAAAAAAAAAAAAAAAAAAAAAAAAAAAAAAAAAAAAAAAAAAAAAAAAAAAAAAAAAAAAAAAAAAAAAAAAAAAAAAAAAAAAAAAAAAAAAAAAAAAAAAAAAAAAAAAAAAAAAAAAAAAAAAAAAAAAAAAAAAAAAAAAAAAAAAAAAAAAAAAAAAAAAAAAAAAAAAAAAAAAAAAAAAAAAAAAAAAAAAAAAAAAAAAAAAAAAAAAAAAAAAAAAAAAAAAAAAAAAAAAAAAAAAAAAAAAAAAAAAAAAAAAAAAAAAAAAAAAAAAAAAAAAAAAAAAAAAAAAAAAAAAAAAAAAAAAAAAAAAAAAAAAAAAAAAAAAAAAAAAAAAAAAAAAAAAAAAAAAAAAAAAAAAAAAAAAAAAAAAAAAAAAAAAAAAAAAAAAAAAAAAAAAAAAAAAAAAAAAAAAAAAAAAAAAAAAAAAAAAAAAAAAAAAAAAAAAAAAAAAAAAAAAAAAAAAAAAAAAAAAAAAAAAAAAAAAAAAAAAAAAAAAAAAAAAAAAAAAAAAAAAAAAAAAAAAAAAAAAAAAAAAAAAAAAAAAAAAAAAAAAAAAAAAAAAAAAAAAAAAAAAAAAAAAAAAAAAAAAAAAAAAAAAAAAAAAAAAAAAAAAAAAAAAAAAAAAAAAAAAAAAAAAAAAAAAAAAAAAAAAAAAAAAAAAAAAAAAAAAAAAAAAAAAAAAAAAAAAAAAAAAAAAAAAAAAAAAAAAAAAAAAAAAAAAAAAAAAAAAAAAAAAAAAAAAAAAAAAAAAAAAAAAAAAAAAAAAAAAAAAAAAAAAAAAAAAAAAAAAAAAAAAAAAAAAAAAAAAAAAAAAAAAAAAAAAAAAAAAAAAAAAAAAAAAAAAAAAAAAAAAAAAAAAAAAAAAAAAAAAAAAAAAAAAAAAAAAAAAAAAAAAAAAAAAAAAAAAAAAAAAAAAAAAAAAAAAAAAAAAAAAAAAAAAAAAAAAAAAAAAAAAAAAAAAAAAAAAAAAAAAAAAAAAAAAAAAAAAAAAAAAAAAAAAAAAAAAAAAAAAAAAAAAAAAAAAAAAAAAAAAAAAAAAAAAAAAAAAAAAAAAAAAAAAAAAAAAAAAAAAAAAAAAAAAAAAAAAAAAAAAAAAAAAAAAAAAAAAAAAAAAAAAAAAAAAAAAAAAAAAAAAAAAAAAAAAAAAAAAAAAAAAAAAAAAAAAAAAAAAAAAAAAAAAAAAAAAAAAAAAAAAAAAAAAAAAAAAAAAAAAAAAAAAAAAAAAAAAAAAAAAAAAAAAAAAAAAAAAAAAAAAAAAAAAAAAAAAAAAAAAAAAAAAAAAAAAAAAAAAAAAAAAAAAAAAAAAAAAAAAAAAAAAAAAAAAAAAAAAAAAAAAAAAAAAAAAAAAAAAAAAAAAAAAAAAAAAAAAAAAAAAAAAAAAAAAAAAAAAAAAAAAAAAAAAAAAAAAAAAAAAAAAAAAAAAAAAAAAAAAAAAAAAAAAAAAAAAAAAAAAAAAAAAAAAAAAAAAAAAAAAAAAAAAAAAAAAAAAAAAAAAAAAAAAAAAAAAAAAAAAAAAAAAAAAAAAAAAAAAAAAAAAAAAAAAAAAAAAAAAAAAAAAAAAAAAAAAAAAAAAAAAAAAAAAAAAAAAAAAAAAAAAAAAAAAAAAAAAAAAAAAAAAAAAAAAAAAAAAAAAAAAAAAAAAAAAAAAAAAAAAAAAAAAAAAAAAAAAAAAAAAAAAAAAAAAAAAAAAAAAAAAAAAAAAAAAAAAAAAAAAAAAAAAAAAAAAAAAAAAAAAAAAAAAAAAAAAAAAAAAAAAAAAAAAAAAAAAAAAAAAAAAAAAAAAAAAAAAAAAAAAAAAAAAAAAAAAAAAAAAAAAAAAAAAAAAAAAAAAAAAAAAAAAAAAAAAAAAAAAAAAAAAAAAAAAAAAAAAAAAAAAAAAAAAAAAAAAAAAAAAAAAAAAAAAAAAAAAAAAAAAAAAAAAAAAAAAAAAAAAAAAAAAAAAAAAAAAAAAAAAAAAAAAAAAAAAAAAAAAAAAAAAAAAAAAAAAAAAAAAAAAAAAAAAAAAAAAAAAAAAAAAAAAAAAAAAAAAAAAAAAAAAAAAAAAAAAAAAAAAAAAAAAAAAAAAAAAAAAAAAAAAAAAAAAAAAAAAAAAAAAAAAAAAAAAAAAAAAAAAAAAAAAAAAAAAAAAAAAAAAAAAAAAAAAAAAAAAAAAAAAAAAAAAAAAAAAAAAAAAAAAAAAAAAAAAAAAAAAAAAAAAAAAAAAAAAAAAAAAAAAAAAAAAAAAAAAAAAAAAAAAAAAAAAAAAAAAAAAAAAAAAAAAAAAAAAAAAAAAAAAAAAAAAAAAAAAAAAAAAAAAAAAAAAAAAAAAAAAAAAAAAAAAAAAAAAAAAAAAAAAAAAAAAAAAAAAAAAAAAAAAAAAAAAAAAAAAAAAAAAAAAAAAAAAAAAAAAAAAAAAAAAAAAAAAAAAAAAAAAAAAAAAAAAAAAAAAAAAAAAAAAAAAAAAAAAAAAAAAAAAAAAAAAAAAAAAAAAAAAAAAAAAAAAAAAAAAAAAAAAAAAAAAAAAAAAAAAAAAAAAAAAAAAAAAAAAAAAAAAAAAAAAAAAAAAAAAAAAAAAAAAAAAAAAAAAAAAAAAAAAAAAAAAAAAAAAAAAAAAAAAAAAAAAAAAAAAAAAAAAAAAAAAAAAAAAAAAAAAAAAAAAAAAAAAAAAAAAAAAAAAAAAAAAAAAAAAAAAAAAAAAAAAAAAAAAAAAAAAAAAAAAAAAAAAAAAAAAAAAAAAAAAAAAAAAAAAAAAAAAAAAAAAAAAAAAAAAAAAAAAAAAAAAAAAAAAAAAAAAAAAAAAAAAAAAAAAAAAAAAAAAAAAAAAAAAAAAAAAAAAAAAAAAAAAAAAAAAAAAAAAAAAAAAAAAAAAAAAAAAAAAAAAAAAAAAAAAAAAAAAAAAAAAAAAAAAAAAAAAAAAAAAAAAAAAAAAAAAAAAAAAAAAAAAAAAAAAAAAAAAAAAAAAAAAAAAAAAAAAAAAAAAAAAAAAAAAAAAAAAAAAAAAAAAAAAAAAAAAAAAAAAAAAAAAAAAAAAAAAAAAAAAAAAAAAAAAAAAAAAAAAAAAAAAAAAAAAAAAAAAAAAAAAAAAAAAAAAAAAAAAAAAAAAAAAAAAAAAAAAAAAAAAAAAAAAAAAAAAAAAAAAAAAAAAAAAAAAAAAAAAAAAAAAAAAAAAAAAAAAAAAAAAAAAAAAAAAAAAAAAAAAAAAAAAAAAAAAAAAAAAAAAAAAAAAAAAAAAAAAAAAAAAAAAAAAAAAAAAAAAAAAAAAAAAAAAAAAAAAAAAAAAAAAAAAAAAAAAAAAAAAAAAAAAAAAAAAAAAAAAAAAAAAAAAAAAAAAAAAAAAAAAAAAAAAAAAAAAAAAAAAAAAAAAAAAAAAAAAAAAAAAAAAAAAAAAAAAAAAAAAAAAAAAAAAAAAAAAAAAAAAAAAAAAAAAAAAAAAAAAAAAAAAAAAAAAAAAAAAAAAAAAAAAAAAAAAAAAAAAAAAAAAAAAAAAAAAAAAAAAAAAAAAAAAAAAAAAAAAAAAAAAAAAAAAAAAAAAAAAAAAAAAAAAAAAAAAAAAAAAAAAAAAAAAAAAAAAAAAAAAAAAAAAAAAAAAAAAAAAAAAAAAAAAAAAAAAAAAAAAAAAAAAAAAAAAAAAAAAAAAAAAAAAAAAAAAAAAAAAAAAAAAAAAAAAAAAAAAAAAAAAAAAAAAAAAAAAAAAAAAAAAAAAAAAAAAAAAAAAAAAAAAAAAAAAAAAAAAAAAAAAAAAAAAAAAAAAAAAAAAAAAAAAAAAAAAAAAAAAAAAAAAAAAAAAAAAAAAAAAAAAAAAAAAAAAAAAAAAAAAAAAAAAAAAAAAAAAAAAAAAAAAAAAAAAAAAAAAAAAAAAAAAAAAAAAAAAAAAAAAAAAAAAAAAAAAAAAAAAAAAAAAAAAAAAAAAAAAAAAAAAAAAAAAAAAAAAAAAAAAAAAAAAAAAAAAAAAAAAAAAAAAAAAAAAAAAAAAAAAAAAAAAAAAAAAAAAAAAAAAAAAAAAAAAAAAAAAAAAAAAAAAAAAAAAAAAAAAAAAAAAAAAAAAAAAAAAAAAAAAAAAAAAAAAAAAAAAAAAAAAAAAAAAAAAAAAAAAAAAAAAAAAAAAAAAAAAAAAAAAAAAAAAAAAAAAAAAAAAAAAAAAAAAAAAAAAAAAAAAAAAAAAAAAAAAAAAAAAAAAAAAAAAAAAAAAAAAAAAAAAAAAAAAAAAAAAAAAAAAAAAAAAAAAAAAAAAAAAAAAAAAAAAAAAAAAAAAAAAAAAAAAAAAAAAAAAAAAAAAAAAAAAAAAAAAAAAAAAAAAAAAAAAAAAAAAAAAAAAAAAAAAAAAAAAAAAAAAAAAAAAAAAAAAAAAAAAAAAAAAAAAAAAAAAAAAAAAAAAAAAAAAAAAAAAAAAAAAAAAAAAAAAAAAAAAAAAAAAAAAAAAAAAAAAAAAAAAAAAAAAAAAAAAAAAAAAAAAAAAAAAAAAAAAAAAAAAAAAAAAAAAAAAAAAAAAAAAAAAAAAAAAAAAAAAAAAAAAAAAAAAAAAAAAAAAAAAAAAAAAAAAAAAAAAAAAAAAAAAAAAAAAAAAAAAAAAAAAAAAAAAAAAAAAAAAAAAAAAAAAAAAAAAAAAAAAAAAAAAAAAAAAAAAAAAAAAAAAAAAAAAAAAAAAAAAAAAAAAAAAAAAAAAAAAAAAAAAAAAAAAAAAAAAAAAAAAAAAAAAAAAAAAAAAAAAAAAAAAAAAAAAAAAAAAAAAAAAAAAAAAAAAAAAAAAAAAAAAAAAAAAAAAAAAAAAAAAAAAAAAAAAAAAAAAAAAAAAAAAAAAAAAAAAAAAAAAAAAAAAAAAAAAAAAAAAAAAAAAAAAAAAAAAAAAAAAAAAAAAAAAAAAAAAAAAAAAAAAAAAAAAAAAAAAAAAAAAAAAAAAAAAAAAAAAAAAAAAAAAAAAAAAAAAAAAAAAAAAAAAAAAAAAAAAAAAAAAAAAAAAAAAAAAAAAAAAAAAAAAAAAAAAAAAAAAAAAAAAAAAAAAAAAAAAAAAAAAAAAAAAAAAAAAAAAAAAAAAAAAAAAAAAAAAAAAAAAAAAAAAAAAAAAAAAAAAAAAAAAAAAAAAAAAAAAAAAAAAAAAAAAAAAAAAAAAAAAAAAAAAAAAAAAAAAAAAAAAAAAAAAAAAAAAAAAAAAAAAAAAAAAAAAAAAAAAAAAAAAAAAAAAAAAAAAAAAAAAAAAAAAAAAAAAAAAAAAAAAAAAAAAAAAAAAAAAAAAAAAAAAAAAAAAAAAAAAAAAAAAAA9lkBAM9s4pF6W+N0zOQo6cTK1bwN+ohcrfkdiTIf4Ku1aCcnt/9ZbSINbPnAtB9rii9obxP0g5lr81t6WsFOAaacIXCzyk4eV/4aCAaXuDYjxMqTnTBlS39XXSfgaWXJD3GaVr7GSt7xwpI9xZku0MgiaNgmGqR3oPf06V+5Y1LVMMDo8zM+ncxCQm1dIgAwh8y0HU6+fpNaJ8tBB3OzY2vxglFDaR0etwTy2W2jdmeagxd652Dm3AG13ksdkJGHua25eLEervP/Cz3Tfkh/NoeQIbNSOQxdaXG56qPwbkUrkXrYs2xdcpug5dIx2iME/DeMT+X8/0IChvJNbH+4BashwlI=</c2pa:manifest></metadata><path d="m44.39,59.81c-.51-3.71-3.77.18-4.91-1.77,5.05-4.6,10.1-9.21,15.15-13.81,3.32-2.72,5.51-6.8,9.9-8.26,3.21-.26,7.32-.27,8.62,2.34,1.53,3.07-2.01,5.69-4.31,7.63-3.84,3.22-5.93,7.73-9.23,11.31-2.81-2.16-5.44-.78-8.19.28-2.29.88-4.11,3.33-7.03,2.29Z" style="fill:#910a29; stroke-width:0px;"/><path d="m48.38,102.96c2.36-.04,5.04,1.79,6.93-1.14,2.07,3.83,3.32,8.22,7.65,10.44,1.33.68,2.58,1.83,4.1,1.03,3.25-1.71,6.79-1.01,10.18-1.51,5.06,1.62,2.52,5.17,2.09,8.18-.79,1.41-1.81,1.47-2.53.09-.98-1.87-2.44-3.15-4.24-1.87-2.21,1.56.22,3.1.83,4.49,1.2,2.7,2.54,5.33,2.47,8.38-.02.94.02,2.06-1.46,1.99-3.65-3.64-7.31-7.28-10.96-10.92-5.02-6.39-10.04-12.78-15.05-19.16Z" style="fill:#8d0725; stroke-width:0px;"/><path d="m64.36,37.02c1.43-1.63,2.87-3.27,4.3-4.9,4.95-2.69,8.55-11.87,15.85-3.31,5.32,6.77,7.85,15.04,12,22.44,2.22,6.25,5.03,12.28,7.03,18.61.7,2.22,1.59,4.45-.37,6.54-2.09,1.38-4.46.93-6.74.99-5.93.16-11.86-.16-17.79.25-2.44.17-5.01.14-6.8-2.07-1.52-3.07-.01-6.17-.02-9.26-.01-5.8-1.32-7.02-7.11-6.24-1.47.2-2.97.75-4.41.3-1.89-.59-3.09-1.61-.79-3.32.64-5.3,4.67-8.25,8-11.74,1.9-1.99,3.45-4.31,5.15-6.48-2.77-.6-5.54-1.2-8.32-1.79Z" style="fill:#530817; stroke-width:0px;"/><path d="m117.6,58.3c3.33,4.75,9.57,7.29,10.55,13.85-.68.32-1.38.48-2.11.14-7.22-5.57-14.76-10.69-22.41-15.67-2.19-1.42-4.75-2.62-4.62-5.9,1.54-2.3,2.77-5.14,6.46-3.67,4.04,3.75,8.08,7.51,12.12,11.26Z" style="fill:#ae4e61; stroke-width:0px;"/><path d="m105.47,47.04c-2.08,1.34-4.15,2.69-6.23,4.03-1.39.8-2.75.16-4.12-.11-3.54-7.39-7.08-14.78-10.62-22.16,6.99,6.08,13.97,12.16,20.96,18.24Z" style="fill:#4a4d65; stroke-width:0px;"/><path d="m126.52,71.95c.54.06,1.09.13,1.63.2-7.67,13.74-18.49,25.03-28.65,36.83-4.1-1.93-6.44-5.54-8.73-9.2,3.97-9.47,9.89-17.6,17.13-24.82,6.14-1.43,12.09-4.05,18.63-3.01Z" style="fill:#5a091b; stroke-width:0px;"/><path d="m91.3,99.86c2.73,3.04,5.46,6.08,8.19,9.12-7.04,7.98-14.07,15.97-21.11,23.95-1.33-2.33-1.45-2.64.5-4.4,2.19-1.98,4.16-4.12,6.13-6.3.32-.35.7-.65.92-1.08-.01.08-.12.4-.47.53-.62.22.2,0-.33.39-.92.67-1.75,1.56-3.01.71-.97-3.77,2.31-5.09,4.23-7.1,1.82-1.9,2.92-3.1.13-5.41-3.35-2.78-.44-8.73,4.82-10.41Z" style="fill:#950221; stroke-width:0px;"/><path d="m82.34,122.75c2.13-1.73,4.26-3.45,6.4-5.18-1.52,2.55-3.31,4.99-4.5,7.69-1.36,3.08-6.6,3.08-5.84,7.66-1.27,2.21-2.61,2.23-4,.11.83-3.62-1.08-6.57-2.09-9.82-.73-2.33-5.88-4.33-2.24-6.54,2.47-1.51,8.28-2.55,8.28,4.23,1.35.58,2.33,1.95,4,1.84Z" style="fill:#441421; stroke-width:0px;"/><path d="m59.52,57.03c-.56,1.34-1.2,2.93,1.32,2.16,16.56-5.04,12.64,5.88,11.48,14.66-.68.96-.11,2.74-1.94,2.95-9.36-.55-18.73-1.08-28.09-1.65-.97-.06-1.97-.23-2.89-.54-6.23-2.13,6.91-1.87.57-6.02-4.79-3.14-.35-7.32,4.4-8.78,3.78-1.79,7.54-3.65,11.37-5.34,2.43-1.08,3.68-.01,3.76,2.56Z" style="fill:#e10038; stroke-width:0px;"/><path d="m76.37,112.78c-11.95,4.39-20.67-.14-21.06-10.96.56-2.37,1.12-4.74,1.68-7.12,2.22-2.47,4.54-2.05,6.91-.25,2.24,3.51,6.37,5.21,8.51,8.83.33.57.95,1.04,1.54.3,3.39-4.21,4.82-.51,5.86,1.77,1.28,2.81,1.62,5.9-2.56,7.02-.32.08-.62.19-.89.4Z" style="fill:#ed0033; stroke-width:0px;"/><path d="m63.48,95.83c-1.66-3.28-4.29-.96-6.49-1.12-2.27-4.89,2.09-3.81,3.53-3.16,13.38,6.11,11.38-2.27,10-10.3-.25-1.45-.1-2.96-.13-4.44.65-.98,1.29-1.97,1.94-2.95,3.43,4.45,8.19,1.79,12.24,1.97,6.31.27,12.66-.58,18.99-.96,1.65.51,1.41,1.46.6,2.55-4.78,2.15-9.83.9-14.75,1.11-6.01.26-6.76.82-7.25,6.89-.23,2.82.02,5.66-.22,8.47-.39,4.71-1.49,5.11-6.21,5.62-4.82.52-8.78-.39-12.25-3.69Z" style="fill:#880420; stroke-width:0px;"/><path d="m63.48,95.83c4.23,3.96,9.69.76,14.39,2.46,2.33.84,2.76-1.64,2.45-3.16-3.44-17.25,5.71-20.49,20.01-18.23,1.44.23,2.96-.08,4.45-.14.74-.68,1.4-1.88,2.47-.37-5.32,7.83-10.63,15.65-15.95,23.48-1.28,3.5-11.04,5.81-1.1,11.02,2.61,1.37-1.27,3.81-2.7,5.52-1.75,2.1-3.45,4.24-5.17,6.36-.88.56-1.75,1.13-2.63,1.69-.46-1.18-.92-2.35-1.38-3.53-1.54-2.5,3.51-6.59-1.97-8.14,3.84-2.4,3.74-5.48,1.41-8.82-.4-.58-1.4-1.32-1.87-1.18-4.21,1.26-7.51-.52-12.42-6.95Z" style="fill:#bf0028; stroke-width:0px;"/><path d="m107.26,76.38c-.82.12-1.65.25-2.47.37-.41-.63-.82-1.26-1.23-1.89-2.81-7.96-5.62-15.93-8.43-23.89,1.41-1.37,2.76-.75,4.12.1,7.78,5.55,15.59,11.04,23.3,16.68,1.53,1.12,2.66,2.78,3.98,4.19-6.42,1.48-12.84,2.95-19.27,4.43Z" style="fill:#a2a2b1; stroke-width:0px;"/><path d="m48.38,102.96c-7.07-9.17-14.21-18.29-21.19-27.53-3.63-4.81,1.61-6.61,3.71-9.16,2.51-3.04,5.7-5.52,8.59-8.24,1.98.14,5.33-3.23,5.32,2.06-.7,1.18-1.98,1.73-2.89,2.69-1.6,1.67-2.43,3.38.4,4.64,1.46.65,2.39,1.82,1.45,3.08-3.34,4.52.97,3.64,2.78,3.78,6.44.46,12.93-.14,19.34,1.11,1.61.31,3.33.12,4.75,1.22,1.92,3.63,2.25,7.61,2.13,11.58-.18,5.57-3.18,7.5-8.65,6.26-1.85-.42-4.2-3.02-5.79.51-.51,2.33-1.25,4.59-2.06,6.83-2.12,3.74-4.86,3.39-7.87,1.19Z" style="fill:#60142a; stroke-width:0px;"/></svg>